Coordinates
version=1
nRows=8
nColumns=63
inDegrees=yes

Units are S.I. units (second, meters, Newtons, ...)
If the header above contains a line with 'inDegrees', this indicates whether rotational values are in degrees (yes) or radians (no).

endheader
time	pelvis_tilt	pelvis_list	pelvis_rotation	pelvis_tx	pelvis_ty	pelvis_tz	hip_flexion_r	hip_adduction_r	hip_rotation_r	knee_angle_r	knee_angle_r_beta	ankle_angle_r	subtalar_angle_r	mtp_angle_r	hip_flexion_l	hip_adduction_l	hip_rotation_l	knee_angle_l	knee_angle_l_beta	ankle_angle_l	subtalar_angle_l	mtp_angle_l	L5_S1_Flex_Ext	L5_S1_Lat_Bending	L5_S1_axial_rotation	L4_L5_Flex_Ext	L4_L5_Lat_Bending	L4_L5_axial_rotation	L3_L4_Flex_Ext	L3_L4_Lat_Bending	L3_L4_axial_rotation	L2_L3_Flex_Ext	L2_L3_Lat_Bending	L2_L3_axial_rotation	L1_L2_Flex_Ext	L1_L2_Lat_Bending	L1_L2_axial_rotation	L1_T12_Flex_Ext	L1_T12_Lat_Bending	L1_T12_axial_rotation	Abs_r3	Abs_r2	Abs_r1	Abs_t1	Abs_t2	neck_flexion	neck_bending	neck_rotation	arm_flex_r	arm_add_r	arm_rot_r	elbow_flex_r	pro_sup_r	wrist_flex_r	wrist_dev_r	arm_flex_l	arm_add_l	arm_rot_l	elbow_flex_l	pro_sup_l	wrist_flex_l	wrist_dev_l
      5.36666667	      6.38571208	     -0.25735153	    175.97749707	      2.44771778	      0.88724898	      0.56999923	     13.89759930	     -0.43167032	    -13.28466898	     21.48108664	      0.37491569	     23.63165937	      2.25671522	      0.00000000	      7.64916185	      0.46698563	     -4.82598384	      9.74318481	      0.17005065	     15.88668546	    -17.27206374	      0.00000000	      0.00398652	     -0.13220052	     -0.95825508	      0.00740337	     -0.17582669	     -1.01814602	      0.00654946	     -0.32143233	     -1.01814602	      0.00455620	     -0.32143233	     -0.83847319	      0.00370188	     -0.26958329	     -0.77858225	      0.00227790	     -0.20477860	     -0.71869131	      0.02847532	     -1.49547867	     -5.32952726	      0.00000000	      0.00000000	     -0.00000000	      0.00000000	      0.00000000	     -5.55006251	     -4.93282590	      5.49535684	     24.04617835	     54.31902232	      0.00000000	      5.00000014	    -13.69038491	     -8.04318441	     11.78818364	     24.65639280	     54.14298169	      0.00000000	      5.00000014
      5.40000000	      6.53953898	     -0.50289106	    175.99442252	      2.44825502	      0.88664161	      0.57040902	     14.24567676	     -0.77943105	    -13.56855749	     21.83506032	      0.38109369	     23.78319870	      2.41467925	      0.00000000	      8.07568807	      0.65369455	     -4.93624076	     10.19443246	      0.17792641	     16.27278362	    -16.94899485	      0.00000000	      0.00400755	     -0.12707162	     -0.85855339	      0.00744243	     -0.16900525	     -0.91221297	      0.00658401	     -0.30896193	     -0.91221297	      0.00458023	     -0.30896193	     -0.75123421	      0.00372142	     -0.25912444	     -0.69757463	      0.00228992	     -0.19683394	     -0.64391504	      0.02862556	     -1.43745955	     -4.77501637	      0.00000000	      0.00000000	     -0.00000000	      0.00000000	      0.00000000	     -5.76363713	     -5.30719828	      5.43068021	     24.54943842	     54.33711209	      0.00000000	      5.00000014	    -13.22548569	     -7.97810867	     11.99438143	     24.38873683	     54.25553567	      0.00000000	      5.00000014
      5.43333333	      6.67841385	     -0.84987819	    176.03171951	      2.44876703	      0.88600004	      0.57091466	     14.59144675	     -1.43212622	    -14.68545272	     22.30720393	      0.38933416	     24.20368028	      3.92196500	      0.00000000	      8.55007553	      0.84176459	     -5.46636345	     10.83196572	      0.18905347	     17.00280143	    -15.58248920	      0.00000000	      0.00377956	     -0.12137172	     -0.71666926	      0.00701903	     -0.16142439	     -0.76146109	      0.00620944	     -0.29510320	     -0.76146109	      0.00431966	     -0.29510320	     -0.62708560	      0.00350970	     -0.24750121	     -0.58229378	      0.00215964	     -0.18800480	     -0.53750195	      0.02699704	     -1.37298118	     -3.98589943	      0.00000000	      0.00000000	     -0.00000000	      0.00000000	      0.00000000	     -6.44072065	     -5.01656153	      2.14233835	     25.41934004	     53.94822598	      0.00000000	      5.00000014	    -12.32398337	     -8.48898521	     15.48781131	     23.92764424	     55.42528787	      0.00000000	      5.00000014
      5.46666667	      6.79227056	     -1.15882454	    176.04738622	      2.44934894	      0.88547187	      0.57127681	     14.95355278	     -1.84925986	    -14.72424789	     22.71855240	      0.39651354	     24.32397261	      4.07129067	      0.00000000	      9.04235172	      0.97386360	     -5.54003793	     11.60109708	      0.20247734	     17.56841415	    -14.66845795	      0.00000000	      0.00267056	     -0.11358868	     -0.57013233	      0.00495950	     -0.15107294	     -0.60576560	      0.00438747	     -0.27617951	     -0.60576560	      0.00305219	     -0.27617951	     -0.49886579	      0.00247988	     -0.23163003	     -0.46323252	      0.00152596	     -0.17594886	     -0.42759925	      0.01907556	     -1.28493781	     -3.17090500	      0.00000000	      0.00000000	     -0.00000000	      0.00000000	      0.00000000	     -7.31242943	     -4.35762798	     -2.12016390	     26.58181310	     53.33150053	      0.00000000	      5.00000014	    -11.50647755	     -8.78774029	     17.74608686	     23.53951226	     56.12506491	      0.00000000	      5.00000014
      5.50000000	      6.81313337	     -1.29840400	    176.32782502	      2.44951153	      0.88538659	      0.57168510	     15.07939077	     -2.04686010	    -14.56966093	     22.91460358	      0.39993528	     24.30369385	      3.77047290	      0.00000000	      9.21600724	      0.98255050	     -5.68367788	     11.95293890	      0.20861814	     17.93918747	    -13.44616473	      0.00000000	      0.00542317	     -0.10703563	     -0.54151660	      0.01007137	     -0.14235739	     -0.57536139	      0.00890973	     -0.26024643	     -0.57536139	      0.00619814	     -0.26024643	     -0.47382703	      0.00503596	     -0.21826705	     -0.43998224	      0.00309880	     -0.16579819	     -0.40613745	      0.03873718	     -1.21080843	     -3.01175288	      0.00000000	      0.00000000	     -0.00000000	      0.00000000	      0.00000000	     -7.69708063	     -4.29364607	     -2.16841289	     26.84237692	     53.21526329	      0.00000000	      5.00000014	    -11.37091291	     -8.83651566	     17.74568611	     23.83767434	     55.98186353	      0.00000000	      5.00000014
      5.53333333	      6.71739623	     -1.49843412	    176.14682222	      2.44955624	      0.88566561	      0.57169778	     15.15329133	     -2.28400023	    -14.36547276	     23.13683579	      0.40381396	     24.17530058	      3.76046062	      0.00000000	      9.02342298	      1.28478708	     -4.20958674	     11.83773104	      0.20660738	     17.37704008	    -15.22413536	      0.00000000	      0.00391520	     -0.12145107	     -0.42608002	      0.00727091	     -0.16152992	     -0.45271002	      0.00643228	     -0.29529612	     -0.45271002	      0.00447468	     -0.29529612	     -0.37282001	      0.00363565	     -0.24766302	     -0.34619001	      0.00223714	     -0.18812770	     -0.31956001	      0.02796586	     -1.37387876	     -2.36972923	      0.00000000	      0.00000000	     -0.00000000	      0.00000000	      0.00000000	     -8.50600498	     -2.94143291	     -8.06442865	     27.96529747	     52.28149455	      0.00000000	      5.00000014	    -10.56414350	     -9.03571118	     20.07430358	     22.76732155	     56.69575507	      0.00000000	      5.00000014
      5.56666667	      6.57833143	     -1.37935470	    176.11879783	      2.44910556	      0.88625697	      0.57141513	     14.96961528	     -2.14063466	    -14.17375581	     23.08917604	      0.40298214	     24.11804677	      3.79693153	      0.00000000	      8.80111857	      1.18143376	     -4.18726285	     11.78729010	      0.20572702	     17.15065041	    -15.49995934	      0.00000000	      0.00412412	     -0.12892124	     -0.46998358	      0.00765891	     -0.17146525	     -0.49935755	      0.00677552	     -0.31345910	     -0.49935755	      0.00471346	     -0.31345910	     -0.41123563	      0.00382966	     -0.26289619	     -0.38186165	      0.00235652	     -0.19969900	     -0.35248768	      0.02945819	     -1.45838285	     -2.61390765	      0.00000000	      0.00000000	     -0.00000000	      0.00000000	      0.00000000	     -8.41511636	     -2.80512851	     -8.00966915	     27.62818625	     52.31800393	      0.00000000	      5.00000014	    -10.68502301	     -9.08661343	     20.10026901	     22.56029085	     56.70626487	      0.00000000	      5.00000014
      5.60000000	      6.48101817	     -1.18274623	    175.99965715	      2.44844334	      0.88679994	      0.57086589	     14.82806042	     -1.91498220	    -14.12223156	     23.12424637	      0.40359424	     24.04040673	      3.81504020	      0.00000000	      8.63676314	      1.01189967	     -4.34942245	     11.75593269	      0.20517973	     17.07374199	    -15.70617573	      0.00000000	      0.00589890	     -0.14293463	     -0.54632562	      0.01095486	     -0.19010306	     -0.58047097	      0.00969131	     -0.34753126	     -0.58047097	      0.00674186	     -0.34753126	     -0.47803492	      0.00547772	     -0.29147230	     -0.44388957	      0.00337063	     -0.22140574	     -0.40974422	      0.04213528	     -1.61690513	     -3.03849920	      0.00000000	      0.00000000	     -0.00000000	      0.00000000	      0.00000000	     -8.22167956	     -2.66567497	     -7.89354123	     27.53225195	     52.34597007	      0.00000000	      5.00000014	    -11.02327777	     -9.12272237	     20.10306728	     22.46359200	     56.70673908	      0.00000000	      5.00000014
